<svg xmlns="http://www.w3.org/2000/svg" xmlns:xlink="http://www.w3.org/1999/xlink" width="512" zoomAndPan="magnify" viewBox="0 0 384 383.999986" height="512" preserveAspectRatio="xMidYMid meet" version="1.0"><defs><clipPath id="b251258812"><path d="M 230 266 L 364 266 L 364 382 L 230 382 Z M 230 266 " clip-rule="nonzero"/></clipPath><clipPath id="c1fada1869"><path d="M 366.015625 245.820312 L 353.839844 390.769531 L 212.753906 378.917969 L 224.929688 233.96875 Z M 366.015625 245.820312 " clip-rule="nonzero"/></clipPath><clipPath id="512e381378"><path d="M 374.300781 147.1875 L 353.84375 390.703125 L 110.328125 370.25 L 130.78125 126.734375 Z M 374.300781 147.1875 " clip-rule="nonzero"/></clipPath><clipPath id="129bfd2b2a"><path d="M 364.246094 266.875 L 353.839844 390.734375 L 230.027344 380.332031 L 240.429688 256.476562 Z M 364.246094 266.875 " clip-rule="nonzero"/></clipPath><clipPath id="6be9abc66e"><path d="M 229 258 L 328 258 L 328 346 L 229 346 Z M 229 258 " clip-rule="nonzero"/></clipPath><clipPath id="6be63f0a18"><path d="M 366.015625 245.820312 L 353.839844 390.769531 L 212.753906 378.917969 L 224.929688 233.96875 Z M 366.015625 245.820312 " clip-rule="nonzero"/></clipPath><clipPath id="0e33e008cb"><path d="M 374.300781 147.1875 L 353.84375 390.703125 L 110.328125 370.25 L 130.78125 126.734375 Z M 374.300781 147.1875 " clip-rule="nonzero"/></clipPath><clipPath id="e0c257347b"><path d="M 227 249 L 288 249 L 288 305 L 227 305 Z M 227 249 " clip-rule="nonzero"/></clipPath><clipPath id="39e6f37c39"><path d="M 366.015625 245.820312 L 353.839844 390.769531 L 212.753906 378.917969 L 224.929688 233.96875 Z M 366.015625 245.820312 " clip-rule="nonzero"/></clipPath><clipPath id="f5c91bcd0a"><path d="M 374.300781 147.1875 L 353.84375 390.703125 L 110.328125 370.25 L 130.78125 126.734375 Z M 374.300781 147.1875 " clip-rule="nonzero"/></clipPath><clipPath id="bce4ec5aad"><path d="M 212 233 L 334 233 L 334 337 L 212 337 Z M 212 233 " clip-rule="nonzero"/></clipPath><clipPath id="429af6b44a"><path d="M 366.015625 245.820312 L 353.839844 390.769531 L 212.753906 378.917969 L 224.929688 233.96875 Z M 366.015625 245.820312 " clip-rule="nonzero"/></clipPath><clipPath id="8dc492ddb1"><path d="M 374.300781 147.1875 L 353.84375 390.703125 L 110.328125 370.25 L 130.78125 126.734375 Z M 374.300781 147.1875 " clip-rule="nonzero"/></clipPath><clipPath id="2bff444f39"><path d="M 337.371094 144.085938 L 320.019531 350.660156 L 113.402344 333.304688 L 130.753906 126.730469 Z M 337.371094 144.085938 " clip-rule="nonzero"/></clipPath><clipPath id="c096ea4ff4"><path d="M 3 1 L 253 1 L 253 261 L 3 261 Z M 3 1 " clip-rule="nonzero"/></clipPath><clipPath id="4c851d6a9f"><path d="M -34.398438 260.15625 L -5.910156 -37.164062 L 291.40625 -8.671875 L 262.917969 288.644531 Z M -34.398438 260.15625 " clip-rule="nonzero"/></clipPath><clipPath id="07877eba27"><path d="M -34.398438 260.15625 L -5.910156 -37.164062 L 291.40625 -8.671875 L 262.917969 288.644531 Z M -34.398438 260.15625 " clip-rule="nonzero"/></clipPath><clipPath id="9445cffe09"><path d="M 118.710938 224.914062 C 64.082031 219.679688 24.039062 171.152344 29.277344 116.523438 C 34.511719 61.894531 83.039062 21.851562 137.667969 27.085938 C 192.296875 32.320312 232.339844 80.851562 227.105469 135.480469 C 225.238281 154.960938 217.878906 172.558594 206.710938 186.921875 C 204.417969 189.871094 203.574219 193.691406 204.410156 197.332031 L 211.128906 226.519531 L 183.75 214.382812 C 180.332031 212.867188 176.421875 212.96875 173.089844 214.660156 C 156.867188 222.898438 138.195312 226.78125 118.710938 224.914062 Z M 4.546875 114.152344 C -1.996094 182.4375 48.054688 243.101562 116.34375 249.644531 C 138.511719 251.769531 159.910156 247.917969 178.902344 239.40625 L 223.773438 259.296875 C 228.074219 261.203125 233.082031 260.515625 236.710938 257.523438 C 240.339844 254.527344 241.964844 249.742188 240.910156 245.15625 L 229.902344 197.328125 C 241.867188 180.296875 249.707031 160.019531 251.832031 137.847656 C 258.378906 69.5625 208.324219 8.902344 140.039062 2.355469 C 71.753906 -4.1875 11.089844 45.867188 4.546875 114.152344 Z M 70.707031 173.433594 C 79.332031 183.890625 90.246094 191.410156 102.128906 195.835938 C 108.558594 198.226562 115.710938 194.957031 118.101562 188.527344 C 120.496094 182.097656 117.226562 174.949219 110.796875 172.554688 C 102.898438 169.613281 95.640625 164.621094 89.867188 157.625 C 84.09375 150.625 80.570312 142.554688 79.183594 134.238281 C 78.054688 127.472656 71.652344 122.902344 64.886719 124.03125 C 58.121094 125.160156 53.550781 131.5625 54.679688 138.328125 C 56.765625 150.835938 62.078125 162.976562 70.707031 173.433594 Z M 58.359375 99.941406 C 55.964844 106.371094 59.234375 113.523438 65.664062 115.917969 C 72.09375 118.308594 79.246094 115.039062 81.640625 108.609375 C 84.578125 100.710938 89.570312 93.453125 96.570312 87.679688 C 103.566406 81.90625 111.640625 78.382812 119.953125 76.996094 C 126.71875 75.867188 131.289062 69.464844 130.160156 62.699219 C 129.03125 55.933594 122.632812 51.363281 115.867188 52.492188 C 103.359375 54.578125 91.214844 59.890625 80.757812 68.519531 C 70.304688 77.148438 62.78125 88.058594 58.359375 99.941406 Z M 136.425781 175.011719 C 129.660156 176.140625 125.089844 182.539062 126.21875 189.304688 C 127.347656 196.070312 133.75 200.640625 140.515625 199.511719 C 153.023438 197.425781 165.164062 192.113281 175.621094 183.488281 C 186.078125 174.859375 193.597656 163.945312 198.023438 152.0625 C 200.414062 145.632812 197.144531 138.484375 190.714844 136.089844 C 184.285156 133.695312 177.132812 136.96875 174.742188 143.394531 C 171.800781 151.296875 166.808594 158.550781 159.808594 164.324219 C 152.8125 170.097656 144.742188 173.621094 136.425781 175.011719 Z M 177.199219 117.765625 C 178.324219 124.535156 184.726562 129.105469 191.492188 127.972656 C 198.257812 126.84375 202.828125 120.445312 201.699219 113.679688 C 199.613281 101.171875 194.300781 89.027344 185.671875 78.574219 C 177.046875 68.117188 166.132812 60.59375 154.25 56.171875 C 147.820312 53.777344 140.667969 57.046875 138.277344 63.476562 C 135.882812 69.90625 139.152344 77.058594 145.582031 79.453125 C 153.484375 82.394531 160.738281 87.386719 166.511719 94.382812 C 172.285156 101.378906 175.808594 109.453125 177.199219 117.765625 Z M 177.199219 117.765625 " clip-rule="evenodd"/></clipPath><clipPath id="1222689fb9"><rect x="0" width="365" y="0" height="384"/></clipPath></defs><g><g clip-path="url(#1222689fb9)"><g clip-path="url(#b251258812)"><g clip-path="url(#c1fada1869)"><g clip-path="url(#512e381378)"><g clip-path="url(#129bfd2b2a)"><path fill="#8e1616" d="M 281.675781 375.996094 C 296.648438 371.324219 310.363281 363.777344 322.441406 353.574219 C 334.519531 343.367188 344.242188 331.105469 351.347656 317.121094 C 358.210938 303.613281 362.347656 289.082031 363.652344 273.925781 C 363.976562 270.140625 361.171875 266.808594 357.386719 266.484375 C 353.601562 266.15625 350.265625 268.960938 349.941406 272.75 C 347.578125 300.261719 334.65625 325.234375 313.558594 343.0625 C 292.460938 360.890625 265.683594 369.460938 238.160156 367.203125 C 234.371094 366.894531 231.050781 369.714844 230.738281 373.5 C 230.585938 375.390625 231.207031 377.164062 232.34375 378.503906 C 233.480469 379.855469 235.136719 380.765625 237.035156 380.921875 C 252.195312 382.164062 267.214844 380.507812 281.675781 375.996094 " fill-opacity="1" fill-rule="nonzero"/></g></g></g></g><g clip-path="url(#6be9abc66e)"><g clip-path="url(#6be63f0a18)"><g clip-path="url(#0e33e008cb)"><path fill="#8e1616" d="M 299.132812 325.992188 C 308.164062 318.359375 315.273438 309.105469 320.261719 298.480469 C 325.078125 288.21875 327.667969 277.25 327.953125 265.875 C 328.050781 262.078125 325.046875 258.921875 321.25 258.824219 C 317.449219 258.730469 314.292969 261.730469 314.199219 265.53125 C 313.710938 284.824219 304.980469 303.03125 290.25 315.480469 C 275.519531 327.925781 256.113281 333.496094 237.007812 330.757812 C 233.246094 330.21875 229.757812 332.832031 229.21875 336.59375 C 228.929688 338.617188 229.550781 340.5625 230.777344 342.011719 C 231.824219 343.253906 233.316406 344.132812 235.054688 344.378906 C 246.316406 345.996094 257.5625 345.273438 268.484375 342.234375 C 279.789062 339.085938 290.101562 333.621094 299.132812 325.992188 " fill-opacity="1" fill-rule="nonzero"/></g></g></g><g clip-path="url(#e0c257347b)"><g clip-path="url(#39e6f37c39)"><g clip-path="url(#f5c91bcd0a)"><path fill="#8e1616" d="M 272.941406 258.273438 C 274.992188 267.988281 271.558594 277.996094 263.984375 284.398438 C 256.410156 290.796875 245.96875 292.511719 236.734375 288.871094 C 233.199219 287.480469 229.203125 289.214844 227.8125 292.75 C 226.847656 295.191406 227.378906 297.847656 228.960938 299.71875 C 229.667969 300.558594 230.59375 301.242188 231.6875 301.675781 C 245.640625 307.175781 261.421875 304.582031 272.867188 294.90625 C 284.316406 285.234375 289.503906 270.109375 286.410156 255.4375 C 285.625 251.71875 281.976562 249.339844 278.257812 250.121094 C 274.539062 250.90625 272.160156 254.558594 272.941406 258.273438 " fill-opacity="1" fill-rule="nonzero"/></g></g></g><g clip-path="url(#bce4ec5aad)"><g clip-path="url(#429af6b44a)"><g clip-path="url(#8dc492ddb1)"><g clip-path="url(#2bff444f39)"><path fill="#8e1616" d="M 193.710938 280.359375 C 194.128906 278.4375 193.683594 276.429688 192.480469 274.875 C 187.855469 268.886719 176.636719 252.75 181.796875 242.960938 C 188.226562 230.765625 205.902344 215.648438 205.902344 215.648438 C 205.902344 215.648438 223.742188 200.75 236.839844 196.449219 C 247.351562 192.996094 261.394531 206.746094 266.523438 212.304688 C 267.859375 213.75 269.761719 214.523438 271.726562 214.433594 C 284.246094 213.867188 329.210938 210.5 332.972656 191.402344 C 335.800781 177.058594 331.246094 167.167969 327.671875 161.957031 C 327.527344 161.746094 327.371094 161.515625 327.199219 161.277344 C 327.15625 161.214844 327.132812 161.1875 327.128906 161.183594 C 322.058594 154.175781 303.714844 136.136719 268.03125 139.828125 C 217.617188 145.050781 176.679688 181.066406 176.679688 181.066406 C 176.679688 181.066406 134.324219 215.433594 120.769531 264.269531 C 111.171875 298.835938 125.902344 319.933594 131.964844 326.101562 C 131.96875 326.105469 131.992188 326.132812 132.046875 326.1875 C 132.253906 326.398438 132.453125 326.589844 132.636719 326.761719 C 137.175781 331.160156 146.171875 337.296875 160.785156 336.90625 C 180.246094 336.382812 191.0625 292.605469 193.710938 280.359375 " fill-opacity="1" fill-rule="nonzero"/></g></g></g></g><g clip-path="url(#c096ea4ff4)"><g clip-path="url(#4c851d6a9f)"><g clip-path="url(#07877eba27)"><g clip-path="url(#9445cffe09)"><path fill="#8e1616" d="M -24.800781 258.828125 L 256.027344 285.738281 L 283.179688 2.375 L 2.351562 -24.535156 Z M -24.800781 258.828125 " fill-opacity="1" fill-rule="nonzero"/></g></g></g></g></g></g></svg>