<svg xmlns="http://www.w3.org/2000/svg" xmlns:xlink="http://www.w3.org/1999/xlink" width="512" zoomAndPan="magnify" viewBox="0 0 384 383.999986" height="512" preserveAspectRatio="xMidYMid meet" version="1.0"><defs><clipPath id="6f716d727a"><path d="M 230 266 L 364 266 L 364 382 L 230 382 Z M 230 266 " clip-rule="nonzero"/></clipPath><clipPath id="8ca339e524"><path d="M 366.011719 245.816406 L 353.832031 390.804688 L 212.578125 378.941406 L 224.757812 233.953125 Z M 366.011719 245.816406 " clip-rule="nonzero"/></clipPath><clipPath id="c46ed7f470"><path d="M 374.296875 147.183594 L 353.828125 390.828125 L 110.1875 370.359375 L 130.652344 126.71875 Z M 374.296875 147.183594 " clip-rule="nonzero"/></clipPath><clipPath id="0a7c89561e"><path d="M 364.242188 266.875 L 353.835938 390.730469 L 230.019531 380.332031 L 240.425781 256.472656 Z M 364.242188 266.875 " clip-rule="nonzero"/></clipPath><clipPath id="2381be2d63"><path d="M 229 258 L 328 258 L 328 346 L 229 346 Z M 229 258 " clip-rule="nonzero"/></clipPath><clipPath id="5a092d21ab"><path d="M 366.011719 245.816406 L 353.832031 390.804688 L 212.578125 378.941406 L 224.757812 233.953125 Z M 366.011719 245.816406 " clip-rule="nonzero"/></clipPath><clipPath id="93927c2b2d"><path d="M 374.296875 147.183594 L 353.828125 390.828125 L 110.1875 370.359375 L 130.652344 126.71875 Z M 374.296875 147.183594 " clip-rule="nonzero"/></clipPath><clipPath id="0aea6694bb"><path d="M 227 249 L 288 249 L 288 305 L 227 305 Z M 227 249 " clip-rule="nonzero"/></clipPath><clipPath id="f948a7bda2"><path d="M 366.011719 245.816406 L 353.832031 390.804688 L 212.578125 378.941406 L 224.757812 233.953125 Z M 366.011719 245.816406 " clip-rule="nonzero"/></clipPath><clipPath id="ef86f5a9ea"><path d="M 374.296875 147.183594 L 353.828125 390.828125 L 110.1875 370.359375 L 130.652344 126.71875 Z M 374.296875 147.183594 " clip-rule="nonzero"/></clipPath><clipPath id="4f109064e4"><path d="M 212 233 L 334 233 L 334 337 L 212 337 Z M 212 233 " clip-rule="nonzero"/></clipPath><clipPath id="1c2a150622"><path d="M 366.011719 245.816406 L 353.832031 390.804688 L 212.578125 378.941406 L 224.757812 233.953125 Z M 366.011719 245.816406 " clip-rule="nonzero"/></clipPath><clipPath id="878a3f432f"><path d="M 374.296875 147.183594 L 353.828125 390.828125 L 110.1875 370.359375 L 130.652344 126.71875 Z M 374.296875 147.183594 " clip-rule="nonzero"/></clipPath><clipPath id="331f338870"><path d="M 337.367188 144.082031 L 320.015625 350.660156 L 113.394531 333.304688 L 130.75 126.726562 Z M 337.367188 144.082031 " clip-rule="nonzero"/></clipPath><clipPath id="78ff8a51b2"><path d="M 3 1 L 253 1 L 253 261 L 3 261 Z M 3 1 " clip-rule="nonzero"/></clipPath><clipPath id="9c2fe89c00"><path d="M -34.402344 260.175781 L -5.925781 -36.964844 L 291.210938 -8.488281 L 262.738281 288.648438 Z M -34.402344 260.175781 " clip-rule="nonzero"/></clipPath><clipPath id="c804c57953"><path d="M -34.402344 260.175781 L -5.925781 -36.964844 L 291.210938 -8.488281 L 262.738281 288.648438 Z M -34.402344 260.175781 " clip-rule="nonzero"/></clipPath><clipPath id="d5e89311c1"><path d="M 118.722656 224.933594 C 64.089844 219.699219 24.042969 171.164062 29.277344 116.53125 C 34.515625 61.898438 83.046875 21.855469 137.679688 27.089844 C 192.3125 32.324219 232.359375 80.859375 227.121094 135.492188 C 225.253906 154.976562 217.898438 172.570312 206.726562 186.9375 C 204.433594 189.882812 203.589844 193.707031 204.425781 197.347656 L 211.148438 226.539062 L 183.761719 214.398438 C 180.347656 212.882812 176.433594 212.988281 173.105469 214.679688 C 156.878906 222.917969 138.207031 226.800781 118.722656 224.933594 Z M 4.546875 114.164062 C -1.996094 182.453125 48.0625 243.121094 116.351562 249.664062 C 138.523438 251.789062 159.921875 247.9375 178.917969 239.425781 L 223.789062 259.320312 C 228.089844 261.226562 233.101562 260.539062 236.730469 257.542969 C 240.359375 254.550781 241.984375 249.761719 240.929688 245.175781 L 229.921875 197.34375 C 241.886719 180.3125 249.730469 160.03125 251.851562 137.859375 C 258.398438 69.570312 208.339844 8.902344 140.050781 2.359375 C 71.757812 -4.183594 11.09375 45.871094 4.546875 114.164062 Z M 70.710938 173.449219 C 79.339844 183.90625 90.253906 191.425781 102.140625 195.851562 C 108.566406 198.246094 115.71875 194.972656 118.113281 188.542969 C 120.507812 182.113281 117.234375 174.960938 110.808594 172.566406 C 102.90625 169.628906 95.648438 164.632812 89.875 157.636719 C 84.101562 150.636719 80.578125 142.566406 79.191406 134.25 C 78.0625 127.484375 71.660156 122.914062 64.894531 124.042969 C 58.125 125.171875 53.554688 131.570312 54.683594 138.339844 C 56.773438 150.847656 62.085938 162.992188 70.710938 173.449219 Z M 58.363281 99.949219 C 55.96875 106.378906 59.242188 113.535156 65.671875 115.925781 C 72.101562 118.320312 79.253906 115.050781 81.644531 108.621094 C 84.585938 100.71875 89.582031 93.460938 96.578125 87.6875 C 103.574219 81.914062 111.648438 78.390625 119.964844 77.003906 C 126.730469 75.875 131.300781 69.472656 130.171875 62.707031 C 129.042969 55.9375 122.640625 51.371094 115.875 52.5 C 103.367188 54.585938 91.222656 59.898438 80.765625 68.527344 C 70.308594 77.152344 62.789062 88.066406 58.363281 99.949219 Z M 136.4375 175.023438 C 129.671875 176.152344 125.101562 182.554688 126.230469 189.320312 C 127.359375 196.089844 133.761719 200.660156 140.527344 199.53125 C 153.035156 197.441406 165.175781 192.128906 175.632812 183.503906 C 186.09375 174.875 193.613281 163.960938 198.039062 152.074219 C 200.429688 145.644531 197.160156 138.496094 190.730469 136.101562 C 184.300781 133.707031 177.148438 136.980469 174.753906 143.40625 C 171.8125 151.308594 166.820312 158.566406 159.824219 164.339844 C 152.824219 170.113281 144.753906 173.636719 136.4375 175.023438 Z M 177.210938 117.777344 C 178.339844 124.542969 184.742188 129.113281 191.507812 127.984375 C 198.273438 126.855469 202.84375 120.453125 201.714844 113.6875 C 199.628906 101.179688 194.316406 89.035156 185.6875 78.582031 C 177.0625 68.121094 166.148438 60.601562 154.261719 56.175781 C 147.835938 53.785156 140.679688 57.054688 138.289062 63.484375 C 135.894531 69.914062 139.164062 77.066406 145.59375 79.460938 C 153.496094 82.402344 160.753906 87.394531 166.527344 94.390625 C 172.300781 101.390625 175.824219 109.460938 177.210938 117.777344 Z M 177.210938 117.777344 " clip-rule="evenodd"/></clipPath></defs><g clip-path="url(#6f716d727a)"><g clip-path="url(#8ca339e524)"><g clip-path="url(#c46ed7f470)"><g clip-path="url(#0a7c89561e)"><path fill="#ffffff" d="M 281.671875 375.992188 C 296.644531 371.320312 310.359375 363.777344 322.4375 353.570312 C 334.515625 343.367188 344.238281 331.101562 351.34375 317.117188 C 358.207031 303.613281 362.34375 289.082031 363.648438 273.925781 C 363.972656 270.140625 361.167969 266.804688 357.382812 266.480469 C 353.597656 266.15625 350.261719 268.960938 349.9375 272.746094 C 347.574219 300.261719 334.652344 325.234375 313.554688 343.058594 C 292.457031 360.890625 265.679688 369.460938 238.15625 367.203125 C 234.367188 366.894531 231.046875 369.714844 230.734375 373.5 C 230.578125 375.386719 231.203125 377.160156 232.335938 378.503906 C 233.476562 379.851562 235.132812 380.765625 237.03125 380.917969 C 252.191406 382.164062 267.210938 380.503906 281.671875 375.992188 " fill-opacity="1" fill-rule="nonzero"/></g></g></g></g><g clip-path="url(#2381be2d63)"><g clip-path="url(#5a092d21ab)"><g clip-path="url(#93927c2b2d)"><path fill="#ffffff" d="M 299.128906 325.988281 C 308.160156 318.359375 315.269531 309.101562 320.257812 298.476562 C 325.074219 288.21875 327.664062 277.25 327.949219 265.875 C 328.046875 262.078125 325.042969 258.917969 321.246094 258.820312 C 317.445312 258.726562 314.289062 261.726562 314.191406 265.527344 C 313.707031 284.824219 304.976562 303.03125 290.246094 315.476562 C 275.515625 327.925781 256.109375 333.496094 237 330.757812 C 233.238281 330.21875 229.753906 332.828125 229.214844 336.589844 C 228.921875 338.617188 229.546875 340.5625 230.769531 342.011719 C 231.820312 343.253906 233.3125 344.128906 235.046875 344.378906 C 246.308594 345.992188 257.558594 345.269531 268.476562 342.230469 C 279.785156 339.085938 290.097656 333.621094 299.128906 325.988281 " fill-opacity="1" fill-rule="nonzero"/></g></g></g><g clip-path="url(#0aea6694bb)"><g clip-path="url(#f948a7bda2)"><g clip-path="url(#ef86f5a9ea)"><path fill="#ffffff" d="M 272.9375 258.273438 C 274.988281 267.984375 271.554688 277.992188 263.980469 284.394531 C 256.40625 290.792969 245.964844 292.507812 236.730469 288.871094 C 233.195312 287.476562 229.199219 289.214844 227.804688 292.75 C 226.84375 295.1875 227.371094 297.847656 228.953125 299.71875 C 229.664062 300.558594 230.589844 301.242188 231.683594 301.671875 C 245.636719 307.171875 261.414062 304.578125 272.863281 294.90625 C 284.308594 285.234375 289.5 270.109375 286.402344 255.433594 C 285.621094 251.714844 281.96875 249.335938 278.25 250.121094 C 274.535156 250.90625 272.15625 254.554688 272.9375 258.273438 " fill-opacity="1" fill-rule="nonzero"/></g></g></g><g clip-path="url(#4f109064e4)"><g clip-path="url(#1c2a150622)"><g clip-path="url(#878a3f432f)"><g clip-path="url(#331f338870)"><path fill="#ffffff" d="M 193.707031 280.355469 C 194.121094 278.433594 193.679688 276.429688 192.476562 274.871094 C 187.847656 268.882812 176.632812 252.746094 181.792969 242.957031 C 188.21875 230.761719 205.894531 215.644531 205.894531 215.644531 C 205.894531 215.644531 223.738281 200.75 236.835938 196.445312 C 247.347656 192.992188 261.386719 206.742188 266.519531 212.304688 C 267.851562 213.746094 269.757812 214.523438 271.722656 214.433594 C 284.242188 213.863281 329.207031 210.5 332.96875 191.398438 C 335.796875 177.054688 331.242188 167.164062 327.664062 161.957031 C 327.523438 161.742188 327.367188 161.515625 327.195312 161.273438 C 327.152344 161.210938 327.128906 161.183594 327.125 161.179688 C 322.054688 154.171875 303.710938 136.132812 268.027344 139.824219 C 217.613281 145.046875 176.671875 181.0625 176.671875 181.0625 C 176.671875 181.0625 134.320312 215.429688 120.761719 264.269531 C 111.167969 298.835938 125.894531 319.929688 131.957031 326.097656 C 131.960938 326.105469 131.984375 326.128906 132.039062 326.183594 C 132.25 326.394531 132.449219 326.585938 132.632812 326.761719 C 137.171875 331.160156 146.164062 337.296875 160.78125 336.902344 C 180.238281 336.382812 191.058594 292.605469 193.707031 280.355469 " fill-opacity="1" fill-rule="nonzero"/></g></g></g></g><g clip-path="url(#78ff8a51b2)"><g clip-path="url(#9c2fe89c00)"><g clip-path="url(#c804c57953)"><g clip-path="url(#d5e89311c1)"><path fill="#ffffff" d="M -24.804688 258.847656 L 256.046875 285.761719 L 283.203125 2.375 L 2.351562 -24.535156 Z M -24.804688 258.847656 " fill-opacity="1" fill-rule="nonzero"/></g></g></g></g></svg>