<svg xmlns="http://www.w3.org/2000/svg" xmlns:xlink="http://www.w3.org/1999/xlink" width="500" zoomAndPan="magnify" viewBox="0 0 375 374.999991" height="500" preserveAspectRatio="xMidYMid meet" version="1.0"><defs><g/><clipPath id="a8282c1ab0"><path d="M 237 146 L 263 146 L 263 169 L 237 169 Z M 237 146 " clip-rule="nonzero"/></clipPath><clipPath id="121f8ae354"><path d="M 233.277344 146.710938 L 260.949219 144.605469 L 263 171.527344 L 235.328125 173.632812 Z M 233.277344 146.710938 " clip-rule="nonzero"/></clipPath><clipPath id="b65469f98a"><path d="M 214.683594 148.128906 L 260.300781 144.652344 L 263.777344 190.273438 L 218.160156 193.746094 Z M 214.683594 148.128906 " clip-rule="nonzero"/></clipPath><clipPath id="19a224aaa7"><path d="M 237.246094 146.410156 L 260.59375 144.632812 L 262.371094 167.972656 L 239.023438 169.75 Z M 237.246094 146.410156 " clip-rule="nonzero"/></clipPath><clipPath id="95f2326456"><path d="M 237 153 L 256 153 L 256 170 L 237 170 Z M 237 153 " clip-rule="nonzero"/></clipPath><clipPath id="74a0213deb"><path d="M 233.277344 146.710938 L 260.949219 144.605469 L 263 171.527344 L 235.328125 173.632812 Z M 233.277344 146.710938 " clip-rule="nonzero"/></clipPath><clipPath id="926790b919"><path d="M 214.683594 148.128906 L 260.300781 144.652344 L 263.777344 190.273438 L 218.160156 193.746094 Z M 214.683594 148.128906 " clip-rule="nonzero"/></clipPath><clipPath id="01c4ee7d44"><path d="M 236 160 L 248 160 L 248 172 L 236 172 Z M 236 160 " clip-rule="nonzero"/></clipPath><clipPath id="bd56ef1c95"><path d="M 233.277344 146.710938 L 260.949219 144.605469 L 263 171.527344 L 235.328125 173.632812 Z M 233.277344 146.710938 " clip-rule="nonzero"/></clipPath><clipPath id="0d33f9c3eb"><path d="M 214.683594 148.128906 L 260.300781 144.652344 L 263.777344 190.273438 L 218.160156 193.746094 Z M 214.683594 148.128906 " clip-rule="nonzero"/></clipPath><clipPath id="5ee43a4514"><path d="M 233 154 L 257 154 L 257 174 L 233 174 Z M 233 154 " clip-rule="nonzero"/></clipPath><clipPath id="9246892059"><path d="M 233.277344 146.710938 L 260.949219 144.605469 L 263 171.527344 L 235.328125 173.632812 Z M 233.277344 146.710938 " clip-rule="nonzero"/></clipPath><clipPath id="276d79aa1e"><path d="M 214.683594 148.128906 L 260.300781 144.652344 L 263.777344 190.273438 L 218.160156 193.746094 Z M 214.683594 148.128906 " clip-rule="nonzero"/></clipPath><clipPath id="79ffa39ae4"><path d="M 215.214844 155.089844 L 254.15625 152.125 L 257.121094 191.070312 L 218.179688 194.039062 Z M 215.214844 155.089844 " clip-rule="nonzero"/></clipPath><clipPath id="ca52eb8739"><path d="M 194 169 L 242 169 L 242 218 L 194 218 Z M 194 169 " clip-rule="nonzero"/></clipPath><clipPath id="460b7906b7"><path d="M 247.953125 220.757812 L 191.820312 224.375 L 188.207031 168.238281 L 244.339844 164.625 Z M 247.953125 220.757812 " clip-rule="nonzero"/></clipPath><clipPath id="da50a85c59"><path d="M 247.953125 220.757812 L 191.820312 224.375 L 188.207031 168.238281 L 244.339844 164.625 Z M 247.953125 220.757812 " clip-rule="nonzero"/></clipPath><clipPath id="95eaf1339e"><path d="M 236.808594 193.335938 C 237.472656 203.652344 229.644531 212.558594 219.328125 213.222656 C 209.007812 213.886719 200.105469 206.058594 199.441406 195.742188 C 198.777344 185.421875 206.601562 176.519531 216.921875 175.855469 C 220.601562 175.617188 224.09375 176.457031 227.101562 178.105469 C 227.71875 178.441406 228.457031 178.484375 229.105469 178.21875 L 234.335938 176.09375 L 232.898438 181.554688 C 232.71875 182.234375 232.855469 182.957031 233.269531 183.527344 C 235.289062 186.296875 236.570312 189.65625 236.808594 193.335938 Z M 219.628906 217.894531 C 232.527344 217.0625 242.308594 205.933594 241.480469 193.035156 C 241.210938 188.847656 239.851562 184.980469 237.699219 181.703125 L 240.054688 172.761719 C 240.277344 171.902344 240 170.992188 239.335938 170.40625 C 238.667969 169.820312 237.730469 169.664062 236.910156 169.996094 L 228.34375 173.480469 C 224.816406 171.765625 220.808594 170.914062 216.621094 171.183594 C 203.722656 172.011719 193.9375 183.144531 194.769531 196.042969 C 195.597656 208.941406 206.730469 218.722656 219.628906 217.894531 Z M 228.671875 203.808594 C 230.355469 201.890625 231.429688 199.632812 231.894531 197.292969 C 232.148438 196.023438 231.324219 194.792969 230.058594 194.539062 C 228.789062 194.285156 227.558594 195.109375 227.304688 196.378906 C 226.996094 197.933594 226.285156 199.433594 225.15625 200.71875 C 224.027344 202.003906 222.632812 202.898438 221.125 203.40625 C 219.902344 203.820312 219.242188 205.148438 219.65625 206.371094 C 220.070312 207.597656 221.394531 208.253906 222.621094 207.84375 C 224.886719 207.078125 226.984375 205.726562 228.671875 203.808594 Z M 215.371094 208.308594 C 216.636719 208.5625 217.871094 207.738281 218.121094 206.472656 C 218.375 205.203125 217.550781 203.972656 216.285156 203.71875 C 214.726562 203.410156 213.226562 202.699219 211.945312 201.570312 C 210.660156 200.441406 209.761719 199.042969 209.253906 197.539062 C 208.84375 196.316406 207.515625 195.65625 206.289062 196.070312 C 205.066406 196.480469 204.40625 197.808594 204.820312 199.035156 C 205.582031 201.296875 206.933594 203.398438 208.855469 205.085938 C 210.773438 206.769531 213.027344 207.84375 215.371094 208.308594 Z M 226.992188 191.535156 C 227.40625 192.761719 228.734375 193.417969 229.957031 193.007812 C 231.183594 192.59375 231.839844 191.265625 231.429688 190.039062 C 230.664062 187.777344 229.3125 185.675781 227.394531 183.992188 C 225.476562 182.304688 223.222656 181.234375 220.878906 180.765625 C 219.609375 180.515625 218.378906 181.335938 218.125 182.605469 C 217.875 183.871094 218.695312 185.105469 219.964844 185.355469 C 221.523438 185.667969 223.019531 186.378906 224.304688 187.507812 C 225.589844 188.636719 226.484375 190.03125 226.992188 191.535156 Z M 215.121094 185.667969 C 216.347656 185.253906 217.003906 183.929688 216.59375 182.703125 C 216.179688 181.480469 214.851562 180.820312 213.628906 181.234375 C 211.363281 181.996094 209.265625 183.347656 207.578125 185.265625 C 205.890625 187.183594 204.820312 189.441406 204.351562 191.785156 C 204.101562 193.050781 204.921875 194.285156 206.191406 194.535156 C 207.457031 194.789062 208.691406 193.964844 208.945312 192.699219 C 209.253906 191.140625 209.964844 189.640625 211.09375 188.355469 C 212.222656 187.074219 213.617188 186.175781 215.121094 185.667969 Z M 215.121094 185.667969 " clip-rule="evenodd"/></clipPath></defs><g fill="#ffffff" fill-opacity="1"><g transform="translate(56.751311, 216.374986)"><g><path d="M 4.171875 0 L 4.171875 -60.96875 L 18.625 -60.96875 L 18.625 0 Z M 4.171875 0 "/></g></g></g><g fill="#ffffff" fill-opacity="1"><g transform="translate(76.124806, 216.374986)"><g><path d="M 4.171875 0 L 4.171875 -43.015625 L 18.703125 -43.015625 L 18.703125 0 Z M 11.4375 -47.6875 C 9.207031 -47.6875 7.296875 -48.492188 5.703125 -50.109375 C 4.117188 -51.722656 3.328125 -53.613281 3.328125 -55.78125 C 3.328125 -58.007812 4.117188 -59.914062 5.703125 -61.5 C 7.296875 -63.09375 9.207031 -63.890625 11.4375 -63.890625 C 13.664062 -63.890625 15.570312 -63.09375 17.15625 -61.5 C 18.738281 -59.914062 19.53125 -58.007812 19.53125 -55.78125 C 19.53125 -53.613281 18.738281 -51.722656 17.15625 -50.109375 C 15.570312 -48.492188 13.664062 -47.6875 11.4375 -47.6875 Z M 11.4375 -47.6875 "/></g></g></g><g fill="#ffffff" fill-opacity="1"><g transform="translate(95.498302, 216.374986)"><g><path d="M 4.171875 0 L 4.171875 -24.71875 C 4.171875 -28.394531 5.078125 -31.691406 6.890625 -34.609375 C 8.703125 -37.535156 11.265625 -39.832031 14.578125 -41.5 C 17.890625 -43.175781 21.769531 -44.015625 26.21875 -44.015625 C 30.675781 -44.015625 34.519531 -43.175781 37.75 -41.5 C 40.976562 -39.832031 43.453125 -37.535156 45.171875 -34.609375 C 46.898438 -31.691406 47.765625 -28.394531 47.765625 -24.71875 L 47.765625 0 L 33.234375 0 L 33.234375 -24.046875 C 33.234375 -25.328125 32.925781 -26.507812 32.3125 -27.59375 C 31.707031 -28.6875 30.859375 -29.566406 29.765625 -30.234375 C 28.679688 -30.898438 27.414062 -31.234375 25.96875 -31.234375 C 24.582031 -31.234375 23.316406 -30.898438 22.171875 -30.234375 C 21.035156 -29.566406 20.160156 -28.6875 19.546875 -27.59375 C 18.929688 -26.507812 18.625 -25.328125 18.625 -24.046875 L 18.625 0 Z M 4.171875 0 "/></g></g></g><g fill="#ffffff" fill-opacity="1"><g transform="translate(143.849025, 216.374986)"><g><path d="M 4.171875 0 L 4.171875 -60.96875 L 18.625 -60.96875 L 18.625 -26.96875 L 23.296875 -26.96875 L 32.578125 -43.015625 L 48.859375 -43.015625 L 37.578125 -25.390625 C 40.703125 -24.054688 43.097656 -22.09375 44.765625 -19.5 C 46.429688 -16.914062 47.265625 -13.703125 47.265625 -9.859375 L 47.265625 0 L 32.828125 0 L 32.828125 -9.859375 C 32.828125 -11.242188 32.503906 -12.460938 31.859375 -13.515625 C 31.222656 -14.578125 30.359375 -15.414062 29.265625 -16.03125 C 28.179688 -16.644531 26.972656 -16.953125 25.640625 -16.953125 L 18.625 -16.953125 L 18.625 0 Z M 4.171875 0 "/></g></g></g><g fill="#ffffff" fill-opacity="1"><g transform="translate(190.954431, 216.374986)"><g/></g></g><g fill="#ffffff" fill-opacity="1"><g transform="translate(209.576347, 216.374986)"><g/></g></g><g fill="#ffffff" fill-opacity="1"><g transform="translate(228.198264, 216.374986)"><g/></g></g><g fill="#ffffff" fill-opacity="1"><g transform="translate(246.829427, 216.374986)"><g><path d="M 26.21875 1.078125 C 22.601562 1.078125 19.359375 0.507812 16.484375 -0.625 C 13.617188 -1.769531 11.15625 -3.382812 9.09375 -5.46875 C 7.039062 -7.5625 5.46875 -10.007812 4.375 -12.8125 C 3.289062 -15.625 2.75 -18.757812 2.75 -22.21875 C 2.75 -26.5625 3.640625 -30.359375 5.421875 -33.609375 C 7.203125 -36.867188 9.640625 -39.414062 12.734375 -41.25 C 15.828125 -43.09375 19.347656 -44.015625 23.296875 -44.015625 C 24.910156 -44.015625 26.425781 -43.832031 27.84375 -43.46875 C 29.269531 -43.101562 30.582031 -42.546875 31.78125 -41.796875 C 32.976562 -41.046875 33.992188 -40.113281 34.828125 -39 L 35.15625 -39 L 35.15625 -60.96875 L 49.6875 -60.96875 L 49.6875 -22.296875 C 49.6875 -17.566406 48.710938 -13.460938 46.765625 -9.984375 C 44.816406 -6.503906 42.085938 -3.789062 38.578125 -1.84375 C 35.078125 0.101562 30.957031 1.078125 26.21875 1.078125 Z M 26.21875 -11.53125 C 28 -11.53125 29.53125 -11.957031 30.8125 -12.8125 C 32.09375 -13.675781 33.09375 -14.859375 33.8125 -16.359375 C 34.539062 -17.867188 34.90625 -19.570312 34.90625 -21.46875 C 34.90625 -23.300781 34.539062 -24.941406 33.8125 -26.390625 C 33.09375 -27.835938 32.09375 -28.992188 30.8125 -29.859375 C 29.53125 -30.722656 28 -31.15625 26.21875 -31.15625 C 24.5 -31.15625 22.984375 -30.722656 21.671875 -29.859375 C 20.359375 -28.992188 19.335938 -27.835938 18.609375 -26.390625 C 17.890625 -24.941406 17.53125 -23.300781 17.53125 -21.46875 C 17.53125 -19.570312 17.890625 -17.867188 18.609375 -16.359375 C 19.335938 -14.859375 20.359375 -13.675781 21.671875 -12.8125 C 22.984375 -11.957031 24.5 -11.53125 26.21875 -11.53125 Z M 26.21875 -11.53125 "/></g></g></g><g fill="#ffffff" fill-opacity="1"><g transform="translate(296.93382, 216.374986)"><g><path d="M 4.171875 0 L 4.171875 -43.015625 L 18.703125 -43.015625 L 18.703125 0 Z M 11.4375 -47.6875 C 9.207031 -47.6875 7.296875 -48.492188 5.703125 -50.109375 C 4.117188 -51.722656 3.328125 -53.613281 3.328125 -55.78125 C 3.328125 -58.007812 4.117188 -59.914062 5.703125 -61.5 C 7.296875 -63.09375 9.207031 -63.890625 11.4375 -63.890625 C 13.664062 -63.890625 15.570312 -63.09375 17.15625 -61.5 C 18.738281 -59.914062 19.53125 -58.007812 19.53125 -55.78125 C 19.53125 -53.613281 18.738281 -51.722656 17.15625 -50.109375 C 15.570312 -48.492188 13.664062 -47.6875 11.4375 -47.6875 Z M 11.4375 -47.6875 "/></g></g></g><g clip-path="url(#a8282c1ab0)"><g clip-path="url(#121f8ae354)"><g clip-path="url(#b65469f98a)"><g clip-path="url(#19a224aaa7)"><path fill="#fabc05" d="M 260.015625 158.496094 C 258.699219 155.851562 256.882812 153.527344 254.625 151.585938 C 252.363281 149.644531 249.789062 148.203125 246.976562 147.300781 C 244.257812 146.429688 241.433594 146.097656 238.574219 146.308594 C 237.859375 146.363281 237.324219 146.984375 237.378906 147.695312 C 237.429688 148.410156 238.054688 148.949219 238.765625 148.894531 C 243.953125 148.507812 248.988281 150.164062 252.933594 153.554688 C 256.882812 156.941406 259.28125 161.664062 259.6875 166.851562 C 259.742188 167.566406 260.367188 168.097656 261.078125 168.042969 C 261.433594 168.015625 261.746094 167.847656 261.960938 167.59375 C 262.179688 167.34375 262.296875 167.007812 262.269531 166.648438 C 262.046875 163.792969 261.289062 161.050781 260.015625 158.496094 " fill-opacity="1" fill-rule="nonzero"/></g></g></g></g><g clip-path="url(#95f2326456)"><g clip-path="url(#74a0213deb)"><g clip-path="url(#926790b919)"><path fill="#fabc05" d="M 250.191406 156.746094 C 248.503906 155.296875 246.566406 154.253906 244.441406 153.644531 C 242.390625 153.054688 240.273438 152.902344 238.148438 153.191406 C 237.4375 153.285156 236.941406 153.9375 237.039062 154.648438 C 237.132812 155.359375 237.785156 155.855469 238.496094 155.757812 C 242.097656 155.269531 245.746094 156.347656 248.503906 158.714844 C 251.261719 161.082031 252.878906 164.523438 252.941406 168.160156 C 252.953125 168.875 253.542969 169.445312 254.261719 169.433594 C 254.644531 169.425781 254.988281 169.253906 255.222656 168.980469 C 255.421875 168.75 255.539062 168.445312 255.535156 168.113281 C 255.496094 165.972656 255.023438 163.902344 254.132812 161.960938 C 253.207031 159.953125 251.882812 158.199219 250.191406 156.746094 " fill-opacity="1" fill-rule="nonzero"/></g></g></g><g clip-path="url(#01c4ee7d44)"><g clip-path="url(#bd56ef1c95)"><g clip-path="url(#0d33f9c3eb)"><path fill="#fabc05" d="M 238.382812 163.648438 C 240.128906 162.976562 242.09375 163.316406 243.511719 164.53125 C 244.925781 165.75 245.558594 167.640625 245.160156 169.464844 C 245.007812 170.164062 245.449219 170.855469 246.148438 171.007812 C 246.628906 171.113281 247.109375 170.9375 247.410156 170.585938 C 247.546875 170.429688 247.644531 170.238281 247.691406 170.019531 C 248.296875 167.261719 247.339844 164.402344 245.199219 162.566406 C 243.054688 160.726562 240.085938 160.214844 237.453125 161.230469 C 236.785156 161.488281 236.449219 162.238281 236.707031 162.90625 C 236.964844 163.574219 237.714844 163.90625 238.382812 163.648438 " fill-opacity="1" fill-rule="nonzero"/></g></g></g><g clip-path="url(#5ee43a4514)"><g clip-path="url(#9246892059)"><g clip-path="url(#276d79aa1e)"><g clip-path="url(#79ffa39ae4)"><path fill="#fabc05" d="M 244.867188 177.722656 C 244.496094 177.703125 244.136719 177.847656 243.882812 178.117188 C 242.90625 179.15625 240.242188 181.726562 238.269531 181.058594 C 235.808594 180.230469 232.464844 177.394531 232.464844 177.394531 C 232.464844 177.394531 229.160156 174.523438 227.964844 172.21875 C 227.007812 170.367188 229.144531 167.34375 230.027344 166.222656 C 230.253906 165.929688 230.339844 165.550781 230.265625 165.191406 C 229.785156 162.878906 227.8125 154.617188 224.144531 154.488281 C 221.394531 154.394531 219.691406 155.535156 218.828125 156.359375 C 218.792969 156.390625 218.753906 156.425781 218.714844 156.464844 C 218.707031 156.476562 218.703125 156.480469 218.699219 156.480469 C 217.550781 157.636719 214.742188 161.585938 216.5 168.113281 C 218.984375 177.332031 226.910156 183.867188 226.910156 183.867188 C 226.910156 183.867188 234.570312 190.714844 244.0625 191.773438 C 250.777344 192.519531 254.257812 189.148438 255.226562 187.835938 C 255.226562 187.835938 255.230469 187.828125 255.238281 187.816406 C 255.269531 187.773438 255.300781 187.730469 255.328125 187.691406 C 256.007812 186.714844 256.882812 184.859375 256.371094 182.152344 C 255.691406 178.546875 247.222656 177.847656 244.867188 177.722656 " fill-opacity="1" fill-rule="nonzero"/></g></g></g></g><g clip-path="url(#ca52eb8739)"><g clip-path="url(#460b7906b7)"><g clip-path="url(#da50a85c59)"><g clip-path="url(#95eaf1339e)"><path fill="#fabc05" d="M 245.453125 218.519531 L 242.109375 166.5625 L 190.792969 169.867188 L 194.136719 221.824219 Z M 245.453125 218.519531 " fill-opacity="1" fill-rule="nonzero"/></g></g></g></g></svg>