<svg xmlns="http://www.w3.org/2000/svg" xmlns:xlink="http://www.w3.org/1999/xlink" width="500" zoomAndPan="magnify" viewBox="0 0 375 374.999991" height="500" preserveAspectRatio="xMidYMid meet" version="1.0"><defs><clipPath id="5a8e9a046a"><path d="M 229 27 L 341 27 L 341 125 L 229 125 Z M 229 27 " clip-rule="nonzero"/></clipPath><clipPath id="bc17560601"><path d="M 211.128906 29.515625 L 333.023438 20.230469 L 342.082031 139.136719 L 220.183594 148.421875 Z M 211.128906 29.515625 " clip-rule="nonzero"/></clipPath><clipPath id="2e74e219bf"><path d="M 128.40625 35.816406 L 332.5625 20.265625 L 348.113281 224.425781 L 143.957031 239.972656 Z M 128.40625 35.816406 " clip-rule="nonzero"/></clipPath><clipPath id="dd1f85f370"><path d="M 228.789062 28.171875 L 332.667969 20.257812 L 340.578125 124.101562 L 236.699219 132.015625 Z M 228.789062 28.171875 " clip-rule="nonzero"/></clipPath><clipPath id="7dfce97c6d"><path d="M 227 57 L 311 57 L 311 131 L 227 131 Z M 227 57 " clip-rule="nonzero"/></clipPath><clipPath id="e2b07ee274"><path d="M 211.128906 29.515625 L 333.023438 20.230469 L 342.082031 139.136719 L 220.183594 148.421875 Z M 211.128906 29.515625 " clip-rule="nonzero"/></clipPath><clipPath id="ec6cc314ee"><path d="M 128.40625 35.816406 L 332.5625 20.265625 L 348.113281 224.425781 L 143.957031 239.972656 Z M 128.40625 35.816406 " clip-rule="nonzero"/></clipPath><clipPath id="0f812bb36f"><path d="M 226 91 L 277 91 L 277 138 L 226 138 Z M 226 91 " clip-rule="nonzero"/></clipPath><clipPath id="28a216fbc1"><path d="M 211.128906 29.515625 L 333.023438 20.230469 L 342.082031 139.136719 L 220.183594 148.421875 Z M 211.128906 29.515625 " clip-rule="nonzero"/></clipPath><clipPath id="11c4ca2df0"><path d="M 128.40625 35.816406 L 332.5625 20.265625 L 348.113281 224.425781 L 143.957031 239.972656 Z M 128.40625 35.816406 " clip-rule="nonzero"/></clipPath><clipPath id="ab80f3c040"><path d="M 211 64 L 315 64 L 315 149 L 211 149 Z M 211 64 " clip-rule="nonzero"/></clipPath><clipPath id="e322c4b8ba"><path d="M 211.128906 29.515625 L 333.023438 20.230469 L 342.082031 139.136719 L 220.183594 148.421875 Z M 211.128906 29.515625 " clip-rule="nonzero"/></clipPath><clipPath id="ee8d2ca694"><path d="M 128.40625 35.816406 L 332.5625 20.265625 L 348.113281 224.425781 L 143.957031 239.972656 Z M 128.40625 35.816406 " clip-rule="nonzero"/></clipPath><clipPath id="c8b086a645"><path d="M 130.765625 66.785156 L 304.019531 53.589844 L 317.21875 226.882812 L 143.964844 240.078125 Z M 130.765625 66.785156 " clip-rule="nonzero"/></clipPath><clipPath id="fca57f9b1a"><path d="M 39 132 L 248 132 L 248 347 L 39 347 Z M 39 132 " clip-rule="nonzero"/></clipPath><clipPath id="c237124307"><path d="M 276.417969 358.9375 L 27.183594 374.980469 L 11.136719 125.75 L 260.371094 109.703125 Z M 276.417969 358.9375 " clip-rule="nonzero"/></clipPath><clipPath id="4144eb7241"><path d="M 276.417969 358.9375 L 27.183594 374.980469 L 11.136719 125.75 L 260.371094 109.703125 Z M 276.417969 358.9375 " clip-rule="nonzero"/></clipPath><clipPath id="59759402d7"><path d="M 226.828125 236.929688 C 229.785156 282.835938 194.964844 322.449219 149.058594 325.402344 C 103.152344 328.359375 63.542969 293.539062 60.585938 247.632812 C 57.632812 201.726562 92.449219 162.117188 138.355469 159.160156 C 154.730469 158.109375 170.269531 161.851562 183.648438 169.175781 C 186.394531 170.679688 189.667969 170.867188 192.570312 169.691406 L 215.828125 160.238281 L 209.433594 184.515625 C 208.636719 187.542969 209.246094 190.765625 211.089844 193.296875 C 220.070312 205.625 225.773438 220.558594 226.828125 236.929688 Z M 150.398438 346.183594 C 207.78125 342.488281 251.304688 292.976562 247.609375 235.59375 C 246.410156 216.960938 240.371094 199.769531 230.792969 185.1875 L 241.265625 145.402344 C 242.269531 141.589844 241.035156 137.535156 238.070312 134.929688 C 235.109375 132.328125 230.929688 131.621094 227.277344 133.105469 L 189.164062 148.59375 C 173.476562 140.96875 155.648438 137.183594 137.019531 138.382812 C 79.636719 142.074219 36.113281 191.589844 39.808594 248.972656 C 43.5 306.355469 93.011719 349.878906 150.398438 346.183594 Z M 190.628906 283.527344 C 198.132812 274.992188 202.898438 264.957031 204.976562 254.53125 C 206.097656 248.894531 202.4375 243.410156 196.796875 242.289062 C 191.160156 241.164062 185.675781 244.828125 184.554688 250.464844 C 183.171875 257.394531 180.011719 264.066406 174.988281 269.777344 C 169.96875 275.488281 163.757812 279.480469 157.0625 281.738281 C 151.613281 283.574219 148.6875 289.480469 150.523438 294.929688 C 152.359375 300.378906 158.265625 303.308594 163.714844 301.472656 C 173.789062 298.074219 183.128906 292.058594 190.628906 283.527344 Z M 131.457031 303.546875 C 137.097656 304.671875 142.582031 301.007812 143.703125 295.371094 C 144.828125 289.730469 141.164062 284.25 135.527344 283.125 C 128.597656 281.746094 121.925781 278.582031 116.214844 273.5625 C 110.503906 268.542969 106.511719 262.332031 104.253906 255.636719 C 102.417969 250.1875 96.507812 247.257812 91.058594 249.097656 C 85.613281 250.933594 82.683594 256.839844 84.519531 262.289062 C 87.917969 272.359375 93.929688 281.699219 102.464844 289.203125 C 111 296.703125 121.035156 301.472656 131.457031 303.546875 Z M 183.167969 228.929688 C 185.003906 234.378906 190.910156 237.304688 196.359375 235.46875 C 201.808594 233.632812 204.734375 227.726562 202.898438 222.277344 C 199.503906 212.203125 193.488281 202.863281 184.953125 195.363281 C 176.417969 187.859375 166.386719 183.09375 155.960938 181.015625 C 150.320312 179.894531 144.839844 183.554688 143.714844 189.195312 C 142.59375 194.835938 146.253906 200.316406 151.894531 201.4375 C 158.824219 202.820312 165.492188 205.980469 171.207031 211.003906 C 176.917969 216.023438 180.910156 222.234375 183.167969 228.929688 Z M 130.355469 202.824219 C 135.804688 200.988281 138.734375 195.082031 136.894531 189.632812 C 135.058594 184.183594 129.152344 181.257812 123.703125 183.09375 C 113.632812 186.488281 104.292969 192.503906 96.789062 201.039062 C 89.289062 209.574219 84.519531 219.605469 82.445312 230.03125 C 81.320312 235.671875 84.980469 241.152344 90.621094 242.277344 C 96.261719 243.398438 101.742188 239.738281 102.867188 234.097656 C 104.246094 227.167969 107.410156 220.496094 112.429688 214.785156 C 117.449219 209.074219 123.660156 205.082031 130.355469 202.824219 Z M 130.355469 202.824219 " clip-rule="evenodd"/></clipPath></defs><g clip-path="url(#5a8e9a046a)"><g clip-path="url(#bc17560601)"><g clip-path="url(#2e74e219bf)"><g clip-path="url(#dd1f85f370)"><path fill="#fabc05" d="M 330.097656 81.941406 C 324.234375 70.175781 316.164062 59.832031 306.105469 51.199219 C 296.050781 42.566406 284.605469 36.152344 272.085938 32.140625 C 259.996094 28.261719 247.417969 26.777344 234.703125 27.71875 C 231.523438 27.957031 229.140625 30.722656 229.378906 33.898438 C 229.613281 37.074219 232.378906 39.460938 235.554688 39.222656 C 258.640625 37.511719 281.027344 44.871094 298.59375 59.949219 C 316.160156 75.03125 326.824219 96.042969 328.628906 119.121094 C 328.878906 122.296875 331.65625 124.671875 334.828125 124.421875 C 336.410156 124.300781 337.796875 123.546875 338.757812 122.429688 C 339.71875 121.304688 340.253906 119.816406 340.128906 118.222656 C 339.136719 105.511719 335.761719 93.304688 330.097656 81.941406 " fill-opacity="1" fill-rule="nonzero"/></g></g></g></g><g clip-path="url(#7dfce97c6d)"><g clip-path="url(#e2b07ee274)"><g clip-path="url(#ec6cc314ee)"><path fill="#fabc05" d="M 286.390625 74.164062 C 278.871094 67.710938 270.265625 63.0625 260.808594 60.351562 C 251.675781 57.734375 242.253906 57.054688 232.800781 58.332031 C 229.644531 58.761719 227.433594 61.667969 227.859375 64.824219 C 228.289062 67.980469 231.195312 70.191406 234.351562 69.765625 C 250.382812 67.59375 266.613281 72.386719 278.878906 82.917969 C 291.144531 93.445312 298.339844 108.761719 298.625 124.9375 C 298.679688 128.125 301.304688 130.660156 304.488281 130.605469 C 306.203125 130.574219 307.730469 129.800781 308.765625 128.59375 C 309.65625 127.558594 310.183594 126.207031 310.15625 124.738281 C 309.988281 115.203125 307.890625 105.992188 303.921875 97.359375 C 299.808594 88.425781 293.910156 80.621094 286.390625 74.164062 " fill-opacity="1" fill-rule="nonzero"/></g></g></g><g clip-path="url(#0f812bb36f)"><g clip-path="url(#28a216fbc1)"><g clip-path="url(#11c4ca2df0)"><path fill="#fabc05" d="M 233.851562 104.871094 C 241.613281 101.878906 250.355469 103.382812 256.660156 108.796875 C 262.964844 114.210938 265.777344 122.625 264 130.75 C 263.316406 133.863281 265.289062 136.9375 268.398438 137.617188 C 270.546875 138.089844 272.675781 137.296875 274.011719 135.738281 C 274.613281 135.039062 275.054688 134.183594 275.265625 133.21875 C 277.957031 120.941406 273.707031 108.226562 264.171875 100.046875 C 254.640625 91.863281 241.433594 89.585938 229.703125 94.105469 C 226.730469 95.25 225.25 98.589844 226.394531 101.5625 C 227.539062 104.53125 230.878906 106.015625 233.851562 104.871094 " fill-opacity="1" fill-rule="nonzero"/></g></g></g><g clip-path="url(#ab80f3c040)"><g clip-path="url(#e322c4b8ba)"><g clip-path="url(#ee8d2ca694)"><g clip-path="url(#c8b086a645)"><path fill="#fabc05" d="M 262.691406 167.488281 C 261.046875 167.402344 259.445312 168.035156 258.320312 169.238281 C 253.980469 173.867188 242.125 185.300781 233.335938 182.335938 C 222.386719 178.644531 207.519531 166.035156 207.519531 166.035156 C 207.519531 166.035156 192.8125 153.257812 187.503906 142.992188 C 183.242188 134.753906 192.75 121.300781 196.667969 116.3125 C 197.683594 115.015625 198.070312 113.335938 197.734375 111.726562 C 195.59375 101.441406 186.8125 64.679688 170.503906 64.113281 C 158.257812 63.691406 150.679688 68.777344 146.847656 72.429688 C 146.691406 72.578125 146.523438 72.738281 146.347656 72.914062 C 146.300781 72.957031 146.28125 72.976562 146.277344 72.980469 C 141.15625 78.113281 128.671875 95.699219 136.492188 124.734375 C 147.535156 165.753906 182.800781 194.828125 182.800781 194.828125 C 182.800781 194.828125 216.886719 225.292969 259.109375 229.996094 C 288.992188 233.324219 304.484375 218.324219 308.78125 212.484375 C 308.785156 212.480469 308.804688 212.457031 308.839844 212.402344 C 308.988281 212.203125 309.121094 212.011719 309.238281 211.835938 C 312.273438 207.492188 316.152344 199.234375 313.878906 187.191406 C 310.847656 171.160156 273.179688 168.046875 262.691406 167.488281 " fill-opacity="1" fill-rule="nonzero"/></g></g></g></g><g clip-path="url(#fca57f9b1a)"><g clip-path="url(#c237124307)"><g clip-path="url(#4144eb7241)"><g clip-path="url(#59759402d7)"><path fill="#fabc05" d="M 265.296875 348.976562 L 250.414062 117.824219 L 22.117188 132.519531 L 37 363.675781 Z M 265.296875 348.976562 " fill-opacity="1" fill-rule="nonzero"/></g></g></g></g></svg>