<svg xmlns="http://www.w3.org/2000/svg" xmlns:xlink="http://www.w3.org/1999/xlink" width="1200" zoomAndPan="magnify" viewBox="0 0 900 337.499995" height="450" preserveAspectRatio="xMidYMid meet" version="1.0"><defs><g/><clipPath id="bf3c024cce"><path d="M 0.664062 0 L 897 0 L 897 337 L 0.664062 337 Z M 0.664062 0 " clip-rule="nonzero"/></clipPath><clipPath id="fd80593ff0"><path d="M 0.664062 0 L 896.699219 0 L 896.699219 337 L 0.664062 337 Z M 0.664062 0 " clip-rule="nonzero"/></clipPath><clipPath id="9a97d60cec"><rect x="0" width="897" y="0" height="337"/></clipPath><clipPath id="7fc6ba1a2b"><path d="M 633 252 L 719 252 L 719 327 L 633 327 Z M 633 252 " clip-rule="nonzero"/></clipPath><clipPath id="b203804f28"><path d="M 720.300781 239.011719 L 712.480469 332.089844 L 621.703125 324.460938 L 629.523438 231.386719 Z M 720.300781 239.011719 " clip-rule="nonzero"/></clipPath><clipPath id="544709eeef"><path d="M 725.644531 175.386719 L 712.417969 332.808594 L 554.996094 319.585938 L 568.21875 162.164062 Z M 725.644531 175.386719 " clip-rule="nonzero"/></clipPath><clipPath id="44c9d9adc2"><path d="M 719.160156 252.59375 L 712.445312 332.484375 L 632.582031 325.777344 L 639.292969 245.882812 Z M 719.160156 252.59375 " clip-rule="nonzero"/></clipPath><clipPath id="6e72ac16cb"><path d="M 632 247 L 696 247 L 696 304 L 632 304 Z M 632 247 " clip-rule="nonzero"/></clipPath><clipPath id="ef3e68d668"><path d="M 720.300781 239.011719 L 712.480469 332.089844 L 621.703125 324.460938 L 629.523438 231.386719 Z M 720.300781 239.011719 " clip-rule="nonzero"/></clipPath><clipPath id="0f0eea502b"><path d="M 725.644531 175.386719 L 712.417969 332.808594 L 554.996094 319.585938 L 568.21875 162.164062 Z M 725.644531 175.386719 " clip-rule="nonzero"/></clipPath><clipPath id="7aef187e92"><path d="M 630 241 L 670 241 L 670 277 L 630 277 Z M 630 241 " clip-rule="nonzero"/></clipPath><clipPath id="f7269b6ba1"><path d="M 720.300781 239.011719 L 712.480469 332.089844 L 621.703125 324.460938 L 629.523438 231.386719 Z M 720.300781 239.011719 " clip-rule="nonzero"/></clipPath><clipPath id="a53a22aeb8"><path d="M 725.644531 175.386719 L 712.417969 332.808594 L 554.996094 319.585938 L 568.21875 162.164062 Z M 725.644531 175.386719 " clip-rule="nonzero"/></clipPath><clipPath id="ed474fc81e"><path d="M 621 231 L 700 231 L 700 298 L 621 298 Z M 621 231 " clip-rule="nonzero"/></clipPath><clipPath id="a428874387"><path d="M 720.300781 239.011719 L 712.480469 332.089844 L 621.703125 324.460938 L 629.523438 231.386719 Z M 720.300781 239.011719 " clip-rule="nonzero"/></clipPath><clipPath id="efb685f878"><path d="M 725.644531 175.386719 L 712.417969 332.808594 L 554.996094 319.585938 L 568.21875 162.164062 Z M 725.644531 175.386719 " clip-rule="nonzero"/></clipPath><clipPath id="2843d70641"><path d="M 701.824219 173.386719 L 690.628906 306.636719 L 557.351562 295.441406 L 568.546875 162.191406 Z M 701.824219 173.386719 " clip-rule="nonzero"/></clipPath><clipPath id="b7f2c542dc"><path d="M 485 73 L 646 73 L 646 240 L 485 240 Z M 485 73 " clip-rule="nonzero"/></clipPath><clipPath id="9ae81162c1"><path d="M 460.917969 239.714844 L 479.289062 48.019531 L 670.980469 66.390625 L 652.613281 258.082031 Z M 460.917969 239.714844 " clip-rule="nonzero"/></clipPath><clipPath id="b2bbf74d31"><path d="M 460.917969 239.714844 L 479.289062 48.019531 L 670.980469 66.390625 L 652.613281 258.082031 Z M 460.917969 239.714844 " clip-rule="nonzero"/></clipPath><clipPath id="edfc64cec9"><path d="M 559.695312 216.976562 C 524.453125 213.601562 498.621094 182.292969 502 147.050781 C 505.375 111.804688 536.683594 85.972656 571.925781 89.351562 C 607.171875 92.726562 633.003906 124.035156 629.625 159.28125 C 628.421875 171.847656 623.675781 183.199219 616.46875 192.46875 C 614.992188 194.367188 614.445312 196.835938 614.984375 199.183594 L 619.320312 218.011719 L 601.65625 210.183594 C 599.453125 209.207031 596.925781 209.273438 594.777344 210.363281 C 584.3125 215.679688 572.265625 218.183594 559.695312 216.976562 Z M 486.042969 145.519531 C 481.824219 189.574219 514.113281 228.710938 558.167969 232.933594 C 572.472656 234.300781 586.277344 231.820312 598.53125 226.328125 L 627.476562 239.160156 C 630.25 240.390625 633.480469 239.945312 635.824219 238.015625 C 638.164062 236.082031 639.214844 232.996094 638.53125 230.039062 L 631.429688 199.179688 C 639.148438 188.191406 644.207031 175.113281 645.578125 160.808594 C 649.800781 116.753906 617.507812 77.617188 573.457031 73.398438 C 529.402344 69.175781 490.265625 101.464844 486.042969 145.519531 Z M 528.726562 183.765625 C 534.292969 190.511719 541.332031 195.363281 549 198.21875 C 553.144531 199.761719 557.761719 197.652344 559.304688 193.503906 C 560.847656 189.355469 558.738281 184.742188 554.589844 183.199219 C 549.496094 181.300781 544.8125 178.082031 541.089844 173.566406 C 537.363281 169.050781 535.089844 163.84375 534.195312 158.480469 C 533.46875 154.113281 529.335938 151.164062 524.972656 151.894531 C 520.605469 152.621094 517.660156 156.75 518.386719 161.117188 C 519.734375 169.1875 523.160156 177.019531 528.726562 183.765625 Z M 520.761719 136.351562 C 519.214844 140.5 521.328125 145.113281 525.472656 146.660156 C 529.621094 148.203125 534.234375 146.09375 535.78125 141.945312 C 537.675781 136.847656 540.898438 132.167969 545.414062 128.441406 C 549.925781 124.71875 555.132812 122.445312 560.5 121.550781 C 564.863281 120.820312 567.8125 116.691406 567.082031 112.328125 C 566.355469 107.960938 562.226562 105.015625 557.859375 105.742188 C 549.792969 107.089844 541.957031 110.515625 535.210938 116.082031 C 528.464844 121.648438 523.613281 128.6875 520.761719 136.351562 Z M 571.125 184.78125 C 566.761719 185.511719 563.8125 189.640625 564.539062 194.003906 C 565.269531 198.371094 569.398438 201.320312 573.761719 200.589844 C 581.832031 199.246094 589.664062 195.816406 596.410156 190.25 C 603.15625 184.6875 608.007812 177.644531 610.863281 169.980469 C 612.40625 165.832031 610.296875 161.21875 606.148438 159.671875 C 602 158.128906 597.386719 160.238281 595.84375 164.386719 C 593.945312 169.484375 590.726562 174.164062 586.210938 177.890625 C 581.699219 181.613281 576.488281 183.886719 571.125 184.78125 Z M 597.429688 147.851562 C 598.15625 152.21875 602.285156 155.167969 606.652344 154.4375 C 611.015625 153.710938 613.964844 149.578125 613.238281 145.214844 C 611.890625 137.144531 608.464844 129.3125 602.898438 122.566406 C 597.332031 115.820312 590.292969 110.96875 582.625 108.113281 C 578.476562 106.570312 573.863281 108.679688 572.320312 112.828125 C 570.773438 116.976562 572.886719 121.589844 577.03125 123.132812 C 582.128906 125.03125 586.8125 128.253906 590.535156 132.765625 C 594.261719 137.28125 596.53125 142.488281 597.429688 147.851562 Z M 597.429688 147.851562 " clip-rule="evenodd"/></clipPath><clipPath id="d4399e8e72"><rect x="0" width="897" y="0" height="337"/></clipPath></defs><g clip-path="url(#bf3c024cce)"><g transform="matrix(1, 0, 0, 1, -0.000000000000000111, 0)"><g clip-path="url(#d4399e8e72)"><g clip-path="url(#fd80593ff0)"><g transform="matrix(1, 0, 0, 1, -0.000000000000000111, 0)"><g clip-path="url(#9a97d60cec)"><g fill="#000000" fill-opacity="1"><g transform="translate(2.721948, 232.520289)"><g><path d="M 14.296875 0 L 14.296875 -208.734375 L 63.765625 -208.734375 L 63.765625 0 Z M 14.296875 0 "/></g></g></g><g fill="#000000" fill-opacity="1"><g transform="translate(69.056153, 232.520289)"><g><path d="M 14.296875 0 L 14.296875 -147.265625 L 64.046875 -147.265625 L 64.046875 0 Z M 39.171875 -163.28125 C 31.546875 -163.28125 25.015625 -166.039062 19.578125 -171.5625 C 14.148438 -177.09375 11.4375 -183.578125 11.4375 -191.015625 C 11.4375 -198.640625 14.148438 -205.164062 19.578125 -210.59375 C 25.015625 -216.03125 31.546875 -218.75 39.171875 -218.75 C 46.796875 -218.75 53.328125 -216.03125 58.765625 -210.59375 C 64.203125 -205.164062 66.921875 -198.640625 66.921875 -191.015625 C 66.921875 -183.578125 64.203125 -177.09375 58.765625 -171.5625 C 53.328125 -166.039062 46.796875 -163.28125 39.171875 -163.28125 Z M 39.171875 -163.28125 "/></g></g></g><g fill="#000000" fill-opacity="1"><g transform="translate(135.390358, 232.520289)"><g><path d="M 14.296875 0 L 14.296875 -84.640625 C 14.296875 -97.222656 17.394531 -108.515625 23.59375 -118.515625 C 29.789062 -128.523438 38.554688 -136.390625 49.890625 -142.109375 C 61.234375 -147.828125 74.53125 -150.6875 89.78125 -150.6875 C 105.03125 -150.6875 118.179688 -147.828125 129.234375 -142.109375 C 140.296875 -136.390625 148.78125 -128.523438 154.6875 -118.515625 C 160.601562 -108.515625 163.5625 -97.222656 163.5625 -84.640625 L 163.5625 0 L 113.796875 0 L 113.796875 -82.34375 C 113.796875 -86.726562 112.75 -90.78125 110.65625 -94.5 C 108.5625 -98.21875 105.65625 -101.21875 101.9375 -103.5 C 98.21875 -105.789062 93.878906 -106.9375 88.921875 -106.9375 C 84.160156 -106.9375 79.828125 -105.789062 75.921875 -103.5 C 72.015625 -101.21875 69.007812 -98.21875 66.90625 -94.5 C 64.8125 -90.78125 63.765625 -86.726562 63.765625 -82.34375 L 63.765625 0 Z M 14.296875 0 "/></g></g></g><g fill="#000000" fill-opacity="1"><g transform="translate(300.941631, 232.520289)"><g><path d="M 14.296875 0 L 14.296875 -208.734375 L 63.765625 -208.734375 L 63.765625 -92.359375 L 79.78125 -92.359375 L 111.515625 -147.265625 L 167.28125 -147.265625 L 128.671875 -86.921875 C 139.347656 -82.347656 147.546875 -75.628906 153.265625 -66.765625 C 158.984375 -57.898438 161.84375 -46.890625 161.84375 -33.734375 L 161.84375 0 L 112.375 0 L 112.375 -33.734375 C 112.375 -38.503906 111.273438 -42.695312 109.078125 -46.3125 C 106.890625 -49.9375 103.9375 -52.796875 100.21875 -54.890625 C 96.5 -56.992188 92.351562 -58.046875 87.78125 -58.046875 L 63.765625 -58.046875 L 63.765625 0 Z M 14.296875 0 "/></g></g></g><g fill="#000000" fill-opacity="1"><g transform="translate(462.228973, 232.520289)"><g/></g></g><g fill="#000000" fill-opacity="1"><g transform="translate(525.989798, 232.520289)"><g/></g></g><g fill="#000000" fill-opacity="1"><g transform="translate(589.750622, 232.520289)"><g/></g></g><g fill="#000000" fill-opacity="1"><g transform="translate(653.543105, 232.520289)"><g><path d="M 89.78125 3.71875 C 77.394531 3.71875 66.289062 1.765625 56.46875 -2.140625 C 46.65625 -6.046875 38.222656 -11.570312 31.171875 -18.71875 C 24.117188 -25.875 18.734375 -34.265625 15.015625 -43.890625 C 11.296875 -53.515625 9.4375 -64.238281 9.4375 -76.0625 C 9.4375 -90.925781 12.484375 -103.929688 18.578125 -115.078125 C 24.679688 -126.234375 33.019531 -134.957031 43.59375 -141.25 C 54.175781 -147.539062 66.238281 -150.6875 79.78125 -150.6875 C 85.300781 -150.6875 90.492188 -150.066406 95.359375 -148.828125 C 100.222656 -147.585938 104.703125 -145.679688 108.796875 -143.109375 C 112.898438 -140.535156 116.378906 -137.34375 119.234375 -133.53125 L 120.375 -133.53125 L 120.375 -208.734375 L 170.140625 -208.734375 L 170.140625 -76.34375 C 170.140625 -60.144531 166.800781 -46.085938 160.125 -34.171875 C 153.457031 -22.253906 144.117188 -12.957031 132.109375 -6.28125 C 120.097656 0.382812 105.988281 3.71875 89.78125 3.71875 Z M 89.78125 -39.453125 C 95.882812 -39.453125 101.128906 -40.929688 105.515625 -43.890625 C 109.898438 -46.847656 113.328125 -50.898438 115.796875 -56.046875 C 118.273438 -61.191406 119.515625 -67.003906 119.515625 -73.484375 C 119.515625 -79.773438 118.273438 -85.398438 115.796875 -90.359375 C 113.328125 -95.316406 109.898438 -99.269531 105.515625 -102.21875 C 101.128906 -105.175781 95.882812 -106.65625 89.78125 -106.65625 C 83.875 -106.65625 78.679688 -105.175781 74.203125 -102.21875 C 69.722656 -99.269531 66.242188 -95.316406 63.765625 -90.359375 C 61.285156 -85.398438 60.046875 -79.773438 60.046875 -73.484375 C 60.046875 -67.003906 61.285156 -61.191406 63.765625 -56.046875 C 66.242188 -50.898438 69.722656 -46.847656 74.203125 -43.890625 C 78.679688 -40.929688 83.875 -39.453125 89.78125 -39.453125 Z M 89.78125 -39.453125 "/></g></g></g><g fill="#000000" fill-opacity="1"><g transform="translate(825.098883, 232.520289)"><g><path d="M 14.296875 0 L 14.296875 -147.265625 L 64.046875 -147.265625 L 64.046875 0 Z M 39.171875 -163.28125 C 31.546875 -163.28125 25.015625 -166.039062 19.578125 -171.5625 C 14.148438 -177.09375 11.4375 -183.578125 11.4375 -191.015625 C 11.4375 -198.640625 14.148438 -205.164062 19.578125 -210.59375 C 25.015625 -216.03125 31.546875 -218.75 39.171875 -218.75 C 46.796875 -218.75 53.328125 -216.03125 58.765625 -210.59375 C 64.203125 -205.164062 66.921875 -198.640625 66.921875 -191.015625 C 66.921875 -183.578125 64.203125 -177.09375 58.765625 -171.5625 C 53.328125 -166.039062 46.796875 -163.28125 39.171875 -163.28125 Z M 39.171875 -163.28125 "/></g></g></g></g></g></g><g clip-path="url(#7fc6ba1a2b)"><g clip-path="url(#b203804f28)"><g clip-path="url(#544709eeef)"><g clip-path="url(#44c9d9adc2)"><path fill="#8e1616" d="M 665.894531 322.980469 C 675.554688 319.964844 684.402344 315.097656 692.191406 308.515625 C 699.984375 301.933594 706.257812 294.023438 710.839844 285 C 715.265625 276.289062 717.933594 266.917969 718.777344 257.140625 C 718.984375 254.699219 717.175781 252.546875 714.734375 252.339844 C 712.292969 252.128906 710.140625 253.9375 709.933594 256.378906 C 708.40625 274.128906 700.070312 290.238281 686.460938 301.734375 C 672.855469 313.234375 655.582031 318.765625 637.828125 317.308594 C 635.382812 317.109375 633.242188 318.929688 633.039062 321.371094 C 632.941406 322.589844 633.34375 323.734375 634.074219 324.597656 C 634.808594 325.46875 635.878906 326.054688 637.101562 326.15625 C 646.878906 326.960938 656.570312 325.890625 665.894531 322.980469 " fill-opacity="1" fill-rule="nonzero"/></g></g></g></g><g clip-path="url(#6e72ac16cb)"><g clip-path="url(#ef3e68d668)"><g clip-path="url(#0f0eea502b)"><path fill="#8e1616" d="M 677.15625 290.722656 C 682.984375 285.800781 687.566406 279.832031 690.785156 272.976562 C 693.894531 266.359375 695.5625 259.285156 695.75 251.949219 C 695.8125 249.496094 693.875 247.460938 691.425781 247.398438 C 688.972656 247.335938 686.9375 249.273438 686.875 251.722656 C 686.5625 264.171875 680.929688 275.914062 671.429688 283.945312 C 661.925781 291.972656 649.40625 295.566406 637.082031 293.800781 C 634.65625 293.449219 632.40625 295.136719 632.058594 297.5625 C 631.871094 298.867188 632.273438 300.125 633.0625 301.058594 C 633.742188 301.859375 634.703125 302.425781 635.824219 302.585938 C 643.085938 303.628906 650.34375 303.160156 657.386719 301.203125 C 664.679688 299.171875 671.332031 295.648438 677.15625 290.722656 " fill-opacity="1" fill-rule="nonzero"/></g></g></g><g clip-path="url(#7aef187e92)"><g clip-path="url(#f7269b6ba1)"><g clip-path="url(#a53a22aeb8)"><path fill="#8e1616" d="M 660.265625 247.042969 C 661.585938 253.308594 659.371094 259.765625 654.484375 263.894531 C 649.601562 268.023438 642.863281 269.128906 636.90625 266.78125 C 634.628906 265.882812 632.050781 267 631.152344 269.28125 C 630.53125 270.855469 630.871094 272.570312 631.890625 273.777344 C 632.351562 274.320312 632.945312 274.761719 633.652344 275.039062 C 642.652344 278.585938 652.832031 276.914062 660.214844 270.675781 C 667.597656 264.433594 670.945312 254.679688 668.949219 245.210938 C 668.445312 242.8125 666.089844 241.28125 663.691406 241.785156 C 661.292969 242.292969 659.757812 244.644531 660.265625 247.042969 " fill-opacity="1" fill-rule="nonzero"/></g></g></g><g clip-path="url(#ed474fc81e)"><g clip-path="url(#a428874387)"><g clip-path="url(#efb685f878)"><g clip-path="url(#2843d70641)"><path fill="#8e1616" d="M 609.15625 261.289062 C 609.421875 260.050781 609.136719 258.753906 608.363281 257.75 C 605.375 253.890625 598.140625 243.480469 601.46875 237.164062 C 605.617188 229.296875 617.019531 219.546875 617.019531 219.546875 C 617.019531 219.546875 628.527344 209.9375 636.976562 207.164062 C 643.757812 204.933594 652.8125 213.804688 656.125 217.390625 C 656.984375 218.324219 658.210938 218.824219 659.480469 218.765625 C 667.554688 218.398438 696.558594 216.226562 698.988281 203.90625 C 700.808594 194.65625 697.875 188.273438 695.566406 184.914062 C 695.472656 184.777344 695.371094 184.628906 695.261719 184.476562 C 695.234375 184.433594 695.21875 184.417969 695.214844 184.414062 C 691.945312 179.894531 680.113281 168.257812 657.097656 170.640625 C 624.574219 174.007812 598.167969 197.242188 598.167969 197.242188 C 598.167969 197.242188 570.847656 219.40625 562.101562 250.910156 C 555.914062 273.207031 565.414062 286.816406 569.324219 290.796875 C 569.328125 290.796875 569.34375 290.816406 569.378906 290.851562 C 569.511719 290.984375 569.640625 291.109375 569.761719 291.222656 C 572.6875 294.058594 578.488281 298.015625 587.917969 297.765625 C 600.46875 297.425781 607.445312 269.1875 609.15625 261.289062 " fill-opacity="1" fill-rule="nonzero"/></g></g></g></g><g clip-path="url(#b7f2c542dc)"><g clip-path="url(#9ae81162c1)"><g clip-path="url(#b2bbf74d31)"><g clip-path="url(#edfc64cec9)"><path fill="#8e1616" d="M 465.566406 238.832031 L 648.273438 256.339844 L 666.058594 70.734375 L 483.351562 53.226562 Z M 465.566406 238.832031 " fill-opacity="1" fill-rule="nonzero"/></g></g></g></g></g></g></g></svg>