<svg xmlns="http://www.w3.org/2000/svg" xmlns:xlink="http://www.w3.org/1999/xlink" width="500" zoomAndPan="magnify" viewBox="0 0 375 374.999991" height="500" preserveAspectRatio="xMidYMid meet" version="1.0"><defs><clipPath id="a2237f45d0"><path d="M 227 261 L 358 261 L 358 374 L 227 374 Z M 227 261 " clip-rule="nonzero"/></clipPath><clipPath id="403803ffb3"><path d="M 359.359375 241.84375 L 347.386719 384.371094 L 208.714844 372.71875 L 220.6875 230.195312 Z M 359.359375 241.84375 " clip-rule="nonzero"/></clipPath><clipPath id="43a2926ab9"><path d="M 367.40625 146.066406 L 347.667969 381.042969 L 112.691406 361.304688 L 132.429688 126.328125 Z M 367.40625 146.066406 " clip-rule="nonzero"/></clipPath><clipPath id="6dee1f7454"><path d="M 357.644531 262.28125 L 347.539062 382.542969 L 227.320312 372.445312 L 237.421875 252.183594 Z M 357.644531 262.28125 " clip-rule="nonzero"/></clipPath><clipPath id="5a9c5922c0"><path d="M 226 254 L 323 254 L 323 339 L 226 339 Z M 226 254 " clip-rule="nonzero"/></clipPath><clipPath id="068db9ebb9"><path d="M 359.359375 241.84375 L 347.386719 384.371094 L 208.714844 372.71875 L 220.6875 230.195312 Z M 359.359375 241.84375 " clip-rule="nonzero"/></clipPath><clipPath id="5c68817dd9"><path d="M 367.40625 146.066406 L 347.667969 381.042969 L 112.691406 361.304688 L 132.429688 126.328125 Z M 367.40625 146.066406 " clip-rule="nonzero"/></clipPath><clipPath id="fca44b1af8"><path d="M 224 245 L 283 245 L 283 299 L 224 299 Z M 224 245 " clip-rule="nonzero"/></clipPath><clipPath id="be0f0e6af9"><path d="M 359.359375 241.84375 L 347.386719 384.371094 L 208.714844 372.71875 L 220.6875 230.195312 Z M 359.359375 241.84375 " clip-rule="nonzero"/></clipPath><clipPath id="cdee2eaf40"><path d="M 367.40625 146.066406 L 347.667969 381.042969 L 112.691406 361.304688 L 132.429688 126.328125 Z M 367.40625 146.066406 " clip-rule="nonzero"/></clipPath><clipPath id="0e8d9f7673"><path d="M 208 230 L 329 230 L 329 331 L 208 331 Z M 208 230 " clip-rule="nonzero"/></clipPath><clipPath id="661a248e6d"><path d="M 359.359375 241.84375 L 347.386719 384.371094 L 208.714844 372.71875 L 220.6875 230.195312 Z M 359.359375 241.84375 " clip-rule="nonzero"/></clipPath><clipPath id="89f82e8eeb"><path d="M 367.40625 146.066406 L 347.667969 381.042969 L 112.691406 361.304688 L 132.429688 126.328125 Z M 367.40625 146.066406 " clip-rule="nonzero"/></clipPath><clipPath id="872d1b003f"><path d="M 331.550781 143.054688 L 314.699219 343.636719 L 114.078125 326.785156 L 130.925781 126.203125 Z M 331.550781 143.054688 " clip-rule="nonzero"/></clipPath><clipPath id="ec0cf4690f"><path d="M 7 4 L 250 4 L 250 257 L 7 257 Z M 7 4 " clip-rule="nonzero"/></clipPath><clipPath id="88dcea56f0"><path d="M -29.449219 255.800781 L -1.792969 -32.800781 L 286.804688 -5.144531 L 259.152344 283.453125 Z M -29.449219 255.800781 " clip-rule="nonzero"/></clipPath><clipPath id="5c7663f133"><path d="M -29.449219 255.800781 L -1.792969 -32.800781 L 286.804688 -5.144531 L 259.152344 283.453125 Z M -29.449219 255.800781 " clip-rule="nonzero"/></clipPath><clipPath id="02f01ba011"><path d="M 119.242188 221.578125 C 66.191406 216.492188 27.304688 169.363281 32.386719 116.3125 C 37.472656 63.261719 84.601562 24.375 137.652344 29.457031 C 190.707031 34.542969 229.589844 81.671875 224.507812 134.722656 C 222.695312 153.644531 215.546875 170.730469 204.703125 184.679688 C 202.476562 187.542969 201.65625 191.253906 202.46875 194.789062 L 208.992188 223.136719 L 182.402344 211.347656 C 179.085938 209.878906 175.285156 209.976562 172.050781 211.617188 C 156.296875 219.621094 138.164062 223.390625 119.242188 221.578125 Z M 8.375 114.011719 C 2.019531 180.328125 50.625 239.238281 116.941406 245.589844 C 138.472656 247.65625 159.253906 243.917969 177.699219 235.652344 L 221.269531 254.96875 C 225.449219 256.820312 230.3125 256.152344 233.835938 253.242188 C 237.359375 250.335938 238.941406 245.6875 237.914062 241.234375 L 227.222656 194.785156 C 238.84375 178.246094 246.460938 158.554688 248.523438 137.023438 C 254.878906 70.707031 206.269531 11.796875 139.953125 5.445312 C 73.640625 -0.910156 14.730469 47.695312 8.375 114.011719 Z M 72.621094 171.582031 C 81 181.734375 91.597656 189.039062 103.140625 193.335938 C 109.382812 195.660156 116.328125 192.484375 118.652344 186.242188 C 120.976562 179.996094 117.800781 173.050781 111.558594 170.726562 C 103.886719 167.871094 96.839844 163.023438 91.230469 156.226562 C 85.625 149.433594 82.203125 141.59375 80.855469 133.519531 C 79.757812 126.949219 73.542969 122.507812 66.972656 123.605469 C 60.402344 124.703125 55.964844 130.917969 57.058594 137.488281 C 59.085938 149.636719 64.246094 161.425781 72.621094 171.582031 Z M 60.632812 100.210938 C 58.308594 106.453125 61.484375 113.402344 67.726562 115.722656 C 73.96875 118.050781 80.917969 114.871094 83.242188 108.628906 C 86.097656 100.957031 90.945312 93.910156 97.738281 88.304688 C 104.535156 82.695312 112.375 79.277344 120.449219 77.925781 C 127.019531 76.832031 131.457031 70.613281 130.363281 64.042969 C 129.265625 57.472656 123.050781 53.035156 116.480469 54.132812 C 104.332031 56.160156 92.539062 61.316406 82.386719 69.695312 C 72.230469 78.074219 64.929688 88.671875 60.632812 100.210938 Z M 136.445312 173.113281 C 129.875 174.207031 125.4375 180.425781 126.535156 186.996094 C 127.628906 193.566406 133.847656 198.003906 140.414062 196.910156 C 152.5625 194.882812 164.355469 189.722656 174.507812 181.34375 C 184.664062 172.964844 191.96875 162.367188 196.265625 150.828125 C 198.585938 144.585938 195.410156 137.640625 189.167969 135.316406 C 182.925781 132.992188 175.980469 136.167969 173.65625 142.410156 C 170.796875 150.082031 165.953125 157.128906 159.15625 162.738281 C 152.359375 168.34375 144.519531 171.765625 136.445312 173.113281 Z M 176.039062 117.523438 C 177.136719 124.09375 183.351562 128.53125 189.921875 127.433594 C 196.492188 126.339844 200.933594 120.121094 199.835938 113.550781 C 197.808594 101.40625 192.652344 89.613281 184.273438 79.460938 C 175.894531 69.304688 165.296875 62 153.753906 57.703125 C 147.511719 55.378906 140.566406 58.554688 138.242188 64.800781 C 135.917969 71.042969 139.09375 77.988281 145.339844 80.3125 C 153.011719 83.167969 160.058594 88.015625 165.664062 94.8125 C 171.273438 101.609375 174.691406 109.449219 176.039062 117.523438 Z M 176.039062 117.523438 " clip-rule="evenodd"/></clipPath><clipPath id="27c0ee70fe"><rect x="0" width="375" y="0" height="375"/></clipPath></defs><g transform="matrix(1, 0, 0, 1, 0, 0)"><g clip-path="url(#27c0ee70fe)"><g clip-path="url(#a2237f45d0)"><g clip-path="url(#403803ffb3)"><g clip-path="url(#43a2926ab9)"><g clip-path="url(#6dee1f7454)"><path fill="#fabc05" d="M 277.46875 368.234375 C 292.007812 363.695312 305.324219 356.371094 317.050781 346.464844 C 328.777344 336.554688 338.222656 324.644531 345.121094 311.066406 C 351.78125 297.953125 355.800781 283.84375 357.066406 269.128906 C 357.382812 265.453125 354.660156 262.214844 350.984375 261.898438 C 347.304688 261.582031 344.070312 264.308594 343.753906 267.984375 C 341.457031 294.699219 328.910156 318.945312 308.425781 336.257812 C 287.941406 353.566406 261.941406 361.890625 235.214844 359.699219 C 231.539062 359.398438 228.3125 362.136719 228.011719 365.8125 C 227.859375 367.644531 228.464844 369.367188 229.566406 370.671875 C 230.671875 371.980469 232.28125 372.867188 234.125 373.015625 C 248.84375 374.226562 263.429688 372.617188 277.46875 368.234375 " fill-opacity="1" fill-rule="nonzero"/></g></g></g></g><g clip-path="url(#5a9c5922c0)"><g clip-path="url(#068db9ebb9)"><g clip-path="url(#5c68817dd9)"><path fill="#fabc05" d="M 294.421875 319.679688 C 303.1875 312.273438 310.089844 303.285156 314.933594 292.96875 C 319.613281 283.003906 322.125 272.355469 322.40625 261.3125 C 322.5 257.625 319.582031 254.558594 315.894531 254.464844 C 312.207031 254.371094 309.140625 257.285156 309.046875 260.976562 C 308.574219 279.710938 300.097656 297.386719 285.796875 309.476562 C 271.492188 321.5625 252.648438 326.96875 234.097656 324.308594 C 230.445312 323.785156 227.058594 326.324219 226.535156 329.976562 C 226.253906 331.941406 226.859375 333.832031 228.046875 335.238281 C 229.066406 336.445312 230.511719 337.296875 232.199219 337.535156 C 243.132812 339.105469 254.054688 338.402344 264.660156 335.453125 C 275.636719 332.398438 285.652344 327.089844 294.421875 319.679688 " fill-opacity="1" fill-rule="nonzero"/></g></g></g><g clip-path="url(#fca44b1af8)"><g clip-path="url(#be0f0e6af9)"><g clip-path="url(#cdee2eaf40)"><path fill="#fabc05" d="M 268.988281 253.929688 C 270.980469 263.359375 267.644531 273.078125 260.292969 279.292969 C 252.9375 285.507812 242.800781 287.171875 233.832031 283.640625 C 230.398438 282.285156 226.519531 283.972656 225.167969 287.40625 C 224.234375 289.773438 224.746094 292.355469 226.28125 294.171875 C 226.972656 294.988281 227.871094 295.652344 228.933594 296.070312 C 242.480469 301.410156 257.800781 298.894531 268.917969 289.5 C 280.03125 280.105469 285.070312 265.421875 282.066406 251.171875 C 281.304688 247.5625 277.761719 245.253906 274.148438 246.015625 C 270.539062 246.777344 268.230469 250.320312 268.988281 253.929688 " fill-opacity="1" fill-rule="nonzero"/></g></g></g><g clip-path="url(#0e8d9f7673)"><g clip-path="url(#661a248e6d)"><g clip-path="url(#89f82e8eeb)"><g clip-path="url(#872d1b003f)"><path fill="#fabc05" d="M 192.058594 275.371094 C 192.460938 273.507812 192.03125 271.558594 190.863281 270.046875 C 186.371094 264.234375 175.480469 248.566406 180.488281 239.058594 C 186.730469 227.21875 203.894531 212.539062 203.894531 212.539062 C 203.894531 212.539062 221.21875 198.074219 233.933594 193.898438 C 244.140625 190.542969 257.773438 203.894531 262.757812 209.292969 C 264.050781 210.699219 265.902344 211.449219 267.808594 211.363281 C 279.964844 210.808594 323.625 207.542969 327.28125 188.996094 C 330.023438 175.070312 325.601562 165.464844 322.128906 160.40625 C 321.992188 160.203125 321.839844 159.980469 321.671875 159.746094 C 321.628906 159.6875 321.609375 159.660156 321.605469 159.652344 C 316.679688 152.851562 298.871094 135.332031 264.222656 138.921875 C 215.269531 143.988281 175.519531 178.960938 175.519531 178.960938 C 175.519531 178.960938 134.394531 212.328125 121.230469 259.75 C 111.914062 293.316406 126.214844 313.796875 132.101562 319.789062 C 132.105469 319.792969 132.128906 319.816406 132.179688 319.871094 C 132.382812 320.074219 132.578125 320.261719 132.757812 320.429688 C 137.164062 324.699219 145.894531 330.660156 160.085938 330.277344 C 178.980469 329.769531 189.484375 287.265625 192.058594 275.371094 " fill-opacity="1" fill-rule="nonzero"/></g></g></g></g><g clip-path="url(#ec0cf4690f)"><g clip-path="url(#88dcea56f0)"><g clip-path="url(#5c7663f133)"><g clip-path="url(#02f01ba011)"><path fill="#fabc05" d="M -22.367188 254.480469 L 252.578125 280.828125 L 279.261719 2.335938 L 4.320312 -24.011719 Z M -22.367188 254.480469 " fill-opacity="1" fill-rule="nonzero"/></g></g></g></g></g></g></svg>